<?xml version="1.0" encoding="UTF-8"?>
<svg version="1.1" xmlns="http://www.w3.org/2000/svg" width="512" height="512">
<path d="M0 0 C0.98961731 0.00054382 1.97923462 0.00108765 2.99884033 0.00164795 C19.04167616 0.04208256 34.46674135 0.91774864 50.1875 4.375 C51.17218262 4.58930664 52.15686523 4.80361328 53.17138672 5.02441406 C94.06407766 14.22778136 133.1511257 33.48857931 163.42578125 62.75390625 C165.36446825 64.59387651 167.27371202 66.30011265 169.3359375 67.984375 C171.65098956 69.92521316 173.56894339 71.76219742 175.5 74.0625 C177.34274919 76.23373927 179.18611199 78.37352871 181.140625 80.4453125 C194.03838714 94.15515596 204.27226206 109.86258805 213.1875 126.375 C213.54505371 127.02436523 213.90260742 127.67373047 214.27099609 128.34277344 C228.30770329 154.00184738 236.60320525 182.43099784 240.1875 211.375 C240.2817627 212.07512207 240.37602539 212.77524414 240.47314453 213.49658203 C245.10794862 252.29130173 239.27947282 292.11512693 225.1875 328.375 C224.88086426 329.17099609 224.57422852 329.96699219 224.25830078 330.78710938 C213.80788281 357.59305449 197.99627429 380.73278605 179.1875 402.375 C178.38957031 403.29796875 177.59164063 404.2209375 176.76953125 405.171875 C172.82980765 409.64729252 168.81171736 413.78525793 164.24609375 417.62109375 C162.83118016 418.82658939 161.44939086 420.07171984 160.09765625 421.34765625 C148.41467944 432.35162244 134.91906638 441.481915 120.97021484 449.36621094 C119.23841536 450.34618841 117.51935213 451.34856727 115.80078125 452.3515625 C85.41583903 469.67253069 48.45367156 480.30147206 13.4140625 480.61328125 C12.50093796 480.62312042 11.58781342 480.63295959 10.64701843 480.64309692 C-32.71922941 481.0139116 -73.22643371 474.16494872 -111.8125 453.375 C-112.46524902 453.02856445 -113.11799805 452.68212891 -113.79052734 452.32519531 C-142.49390549 437.02512591 -168.99229422 415.27248141 -188.8125 389.375 C-189.24272461 388.81586914 -189.67294922 388.25673828 -190.11621094 387.68066406 C-197.04430693 378.62841089 -203.2299122 369.31128904 -208.8125 359.375 C-209.41360596 358.31635742 -209.41360596 358.31635742 -210.02685547 357.23632812 C-240.6945415 302.7745413 -248.12544065 236.62385576 -231.8125 176.375 C-222.07063273 142.44642779 -205.91400988 111.13531255 -182.8125 84.375 C-182.14347656 83.59511719 -181.47445312 82.81523438 -180.78515625 82.01171875 C-169.83952451 69.55775042 -158.17043419 58.19922885 -144.8125 48.375 C-144.24176758 47.94880371 -143.67103516 47.52260742 -143.08300781 47.08349609 C-112.21618367 24.07700534 -75.91445142 8.29691456 -37.8125 2.375 C-36.69383545 2.19839844 -35.5751709 2.02179687 -34.42260742 1.83984375 C-22.94881341 0.20770438 -11.57742243 -0.0239919 0 0 Z " fill="#B8138A" transform="translate(254.8125,15.625)"/>
<path d="M0 0 C6.08968067 3.6748073 11.54749384 9.72617432 13.625 16.5625 C14.51918361 25.6320766 13.95699214 33.49371679 8.25 40.875 C5.625 43.5625 5.625 43.5625 3.01171875 44.75 C0.23832381 46.43976066 0.23832381 46.43976066 -0.08203125 50.13671875 C-0.14160733 51.50696863 -0.17597482 52.87850403 -0.1875 54.25 C-0.21263672 54.95189453 -0.23777344 55.65378906 -0.26367188 56.37695312 C-0.32244448 58.10486781 -0.3516097 59.8337443 -0.375 61.5625 C0.42520569 61.55583817 1.22541138 61.54917633 2.04986572 61.54231262 C9.63963984 61.48187292 17.2292951 61.43636019 24.8192482 61.40706348 C28.72009915 61.39149477 32.62074907 61.37042026 36.52148438 61.33618164 C40.29516285 61.30327051 44.06864957 61.28558111 47.84246063 61.27786827 C49.27277387 61.27238109 50.70307819 61.26166837 52.13330841 61.24530983 C68.86500366 61.06177805 82.91651761 64.28864702 95.30078125 76.05078125 C107.50591817 89.24053425 109.24013751 103.54931748 109.12109375 120.6875 C109.12124911 122.52490293 109.12274412 124.36230617 109.12550354 126.19970703 C109.12688048 130.03237571 109.11444842 133.86466697 109.09155273 137.69726562 C109.06317044 142.57902011 109.06591504 147.46014866 109.07864285 152.34194946 C109.08563959 156.13066842 109.07776541 159.9192459 109.06538582 163.70794678 C109.06091003 165.50664729 109.06050013 167.3053632 109.06445122 169.10406494 C109.08535446 186.98810549 106.55721512 202.02387957 93.81640625 215.5625 C87.11780908 221.6760147 79.14308058 224.79873009 70.625 227.5625 C69.635 227.8925 68.645 228.2225 67.625 228.5625 C65.52951594 228.66055227 63.43100652 228.6975128 61.33323669 228.70294189 C59.35457359 228.71150711 59.35457359 228.71150711 57.3359375 228.72024536 C55.87036142 228.72149075 54.40478524 228.72261584 52.93920898 228.72363281 C51.39836 228.72826139 49.85751216 228.73328611 48.31666565 228.73867798 C44.12622329 228.7518046 39.93579696 228.75824804 35.74533725 228.76268864 C33.12522145 228.76562038 30.50511002 228.7697255 27.88499641 228.77419281 C19.68159392 228.78787161 11.47820143 228.79753504 3.27478832 228.8013947 C-6.1833394 228.80586937 -15.64132217 228.82338814 -25.09940583 228.8523953 C-32.41591325 228.87405208 -39.73238002 228.8841012 -47.04891914 228.88543582 C-51.41548258 228.88648146 -55.78190983 228.89233719 -60.14843941 228.91025543 C-64.26149002 228.92680419 -68.3743031 228.92885882 -72.48737526 228.92011642 C-73.99092497 228.91934954 -75.49448781 228.92364245 -76.99800491 228.93357468 C-93.18063502 229.03414132 -106.35393569 225.06658642 -118.375 213.75390625 C-124.4885147 207.05530908 -127.61123009 199.08058058 -130.375 190.5625 C-130.705 189.5725 -131.035 188.5825 -131.375 187.5625 C-131.48666852 184.87274165 -131.54266177 182.20821557 -131.55200195 179.51782227 C-131.55857315 178.69785263 -131.56514435 177.877883 -131.57191467 177.0330658 C-131.59164681 174.31501164 -131.60331462 171.59701294 -131.61328125 168.87890625 C-131.61735678 167.94783491 -131.6214323 167.01676357 -131.62563133 166.05747795 C-131.64649902 161.12238665 -131.66079358 156.18732315 -131.67016602 151.25219727 C-131.68118769 146.1784859 -131.71553623 141.10521828 -131.75533772 136.03166294 C-131.78162173 132.11172225 -131.78986862 128.19188498 -131.79344749 124.27186394 C-131.79828884 122.40335048 -131.80983198 120.53484088 -131.82848549 118.66641426 C-131.98846037 101.56970774 -129.12092435 87.88105496 -117.1875 74.8125 C-107.14000549 65.37876647 -95.07813311 61.42295464 -81.52172852 61.44897461 C-80.87697067 61.44882858 -80.23221283 61.44868256 -79.56791687 61.4485321 C-77.46321093 61.44922183 -75.35859649 61.45696958 -73.25390625 61.46484375 C-71.78417509 61.46671128 -70.31444331 61.4681336 -68.8447113 61.46913147 C-64.99620819 61.4729303 -61.14774344 61.48273779 -57.29925537 61.49383545 C-53.3642224 61.5041065 -49.42918317 61.50864124 -45.49414062 61.51367188 C-37.78774099 61.52436268 -30.08138078 61.54193784 -22.375 61.5625 C-22.375 56.6125 -22.375 51.6625 -22.375 46.5625 C-24.025 45.9025 -25.675 45.2425 -27.375 44.5625 C-32.79537406 39.9583705 -36.55334457 33.33313205 -37.7578125 26.33984375 C-38.14131304 19.09168363 -35.39698537 12.81211935 -31.625 6.75 C-23.36310337 -1.2823995 -11.00363026 -4.83193345 0 0 Z " fill="#BB148B" transform="translate(267.375,143.4375)"/>
<path d="M0 0 C6.08968067 3.6748073 11.54749384 9.72617432 13.625 16.5625 C14.51918361 25.6320766 13.95699214 33.49371679 8.25 40.875 C5.625 43.5625 5.625 43.5625 3.01171875 44.75 C0.23832381 46.43976066 0.23832381 46.43976066 -0.08203125 50.13671875 C-0.14160733 51.50696863 -0.17597482 52.87850403 -0.1875 54.25 C-0.21263672 54.95189453 -0.23777344 55.65378906 -0.26367188 56.37695312 C-0.32244448 58.10486781 -0.3516097 59.8337443 -0.375 61.5625 C0.42520569 61.55583817 1.22541138 61.54917633 2.04986572 61.54231262 C9.63963984 61.48187292 17.2292951 61.43636019 24.8192482 61.40706348 C28.72009915 61.39149477 32.62074907 61.37042026 36.52148438 61.33618164 C40.29516285 61.30327051 44.06864957 61.28558111 47.84246063 61.27786827 C49.27277387 61.27238109 50.70307819 61.26166837 52.13330841 61.24530983 C68.86500366 61.06177805 82.91651761 64.28864702 95.30078125 76.05078125 C107.50591817 89.24053425 109.24013751 103.54931748 109.12109375 120.6875 C109.12124911 122.52490293 109.12274412 124.36230617 109.12550354 126.19970703 C109.12688048 130.03237571 109.11444842 133.86466697 109.09155273 137.69726562 C109.06317044 142.57902011 109.06591504 147.46014866 109.07864285 152.34194946 C109.08563959 156.13066842 109.07776541 159.9192459 109.06538582 163.70794678 C109.06091003 165.50664729 109.06050013 167.3053632 109.06445122 169.10406494 C109.08535446 186.98810549 106.55721512 202.02387957 93.81640625 215.5625 C87.11780908 221.6760147 79.14308058 224.79873009 70.625 227.5625 C69.635 227.8925 68.645 228.2225 67.625 228.5625 C65.52951594 228.66055227 63.43100652 228.6975128 61.33323669 228.70294189 C59.35457359 228.71150711 59.35457359 228.71150711 57.3359375 228.72024536 C55.87036142 228.72149075 54.40478524 228.72261584 52.93920898 228.72363281 C51.39836 228.72826139 49.85751216 228.73328611 48.31666565 228.73867798 C44.12622329 228.7518046 39.93579696 228.75824804 35.74533725 228.76268864 C33.12522145 228.76562038 30.50511002 228.7697255 27.88499641 228.77419281 C19.68159392 228.78787161 11.47820143 228.79753504 3.27478832 228.8013947 C-6.1833394 228.80586937 -15.64132217 228.82338814 -25.09940583 228.8523953 C-32.41591325 228.87405208 -39.73238002 228.8841012 -47.04891914 228.88543582 C-51.41548258 228.88648146 -55.78190983 228.89233719 -60.14843941 228.91025543 C-64.26149002 228.92680419 -68.3743031 228.92885882 -72.48737526 228.92011642 C-73.99092497 228.91934954 -75.49448781 228.92364245 -76.99800491 228.93357468 C-93.18063502 229.03414132 -106.35393569 225.06658642 -118.375 213.75390625 C-124.4885147 207.05530908 -127.61123009 199.08058058 -130.375 190.5625 C-130.705 189.5725 -131.035 188.5825 -131.375 187.5625 C-131.48666852 184.87274165 -131.54266177 182.20821557 -131.55200195 179.51782227 C-131.55857315 178.69785263 -131.56514435 177.877883 -131.57191467 177.0330658 C-131.59164681 174.31501164 -131.60331462 171.59701294 -131.61328125 168.87890625 C-131.61735678 167.94783491 -131.6214323 167.01676357 -131.62563133 166.05747795 C-131.64649902 161.12238665 -131.66079358 156.18732315 -131.67016602 151.25219727 C-131.68118769 146.1784859 -131.71553623 141.10521828 -131.75533772 136.03166294 C-131.78162173 132.11172225 -131.78986862 128.19188498 -131.79344749 124.27186394 C-131.79828884 122.40335048 -131.80983198 120.53484088 -131.82848549 118.66641426 C-131.98846037 101.56970774 -129.12092435 87.88105496 -117.1875 74.8125 C-107.14000549 65.37876647 -95.07813311 61.42295464 -81.52172852 61.44897461 C-80.87697067 61.44882858 -80.23221283 61.44868256 -79.56791687 61.4485321 C-77.46321093 61.44922183 -75.35859649 61.45696958 -73.25390625 61.46484375 C-71.78417509 61.46671128 -70.31444331 61.4681336 -68.8447113 61.46913147 C-64.99620819 61.4729303 -61.14774344 61.48273779 -57.29925537 61.49383545 C-53.3642224 61.5041065 -49.42918317 61.50864124 -45.49414062 61.51367188 C-37.78774099 61.52436268 -30.08138078 61.54193784 -22.375 61.5625 C-22.375 56.6125 -22.375 51.6625 -22.375 46.5625 C-24.025 45.9025 -25.675 45.2425 -27.375 44.5625 C-32.79537406 39.9583705 -36.55334457 33.33313205 -37.7578125 26.33984375 C-38.14131304 19.09168363 -35.39698537 12.81211935 -31.625 6.75 C-23.36310337 -1.2823995 -11.00363026 -4.83193345 0 0 Z M-105.375 92.5625 C-111.88512775 101.26450291 -111.08941538 111.01375494 -111.00390625 121.34375 C-111.00473646 123.16638328 -111.00720155 124.98901646 -111.01121521 126.81164551 C-111.01406207 130.61766294 -110.99948145 134.42308828 -110.97192383 138.22900391 C-110.93784299 143.08425137 -110.94386992 147.93844121 -110.9625864 152.79373932 C-110.97320313 156.55324978 -110.96417634 160.31251821 -110.94920158 164.07200623 C-110.94405354 165.86119364 -110.9444601 167.65040668 -110.95074654 169.43959045 C-111.08951471 184.98963353 -111.08951471 184.98963353 -103.9375 198.4375 C-102.6690625 199.489375 -102.6690625 199.489375 -101.375 200.5625 C-100.59125 201.26375 -99.8075 201.965 -99 202.6875 C-91.14761418 208.29634701 -83.90771174 207.99856274 -74.51049805 207.96655273 C-72.99861142 207.97226071 -71.48672909 207.97922662 -69.97485352 207.98735046 C-65.88168947 208.00525287 -61.78874017 208.00411866 -57.69554877 207.99840808 C-54.2713422 207.99531106 -50.84717657 208.00141459 -47.42297584 208.00744683 C-39.33964763 208.02148174 -31.25642512 208.01994024 -23.1730957 208.00854492 C-14.85184948 207.99707294 -6.53092591 208.01112615 1.79027778 208.0379414 C8.94977463 208.06014374 16.10917054 208.06672534 23.26869935 208.06086498 C27.53797423 208.05750403 31.80704249 208.05985251 36.07628822 208.07711601 C40.09427435 208.09265491 44.11178529 208.08855338 48.12975311 208.06981087 C49.59782258 208.06614365 51.06592779 208.06917855 52.53396416 208.07969666 C62.30430427 208.144311 70.80593627 207.64822794 78.5 201.125 C79.20125 200.279375 79.9025 199.43375 80.625 198.5625 C81.32625 197.77875 82.0275 196.995 82.75 196.1875 C86.93042924 190.33489906 88.07188198 185.29780477 88.02905273 178.18383789 C88.03591599 177.37636612 88.04277924 176.56889435 88.04985046 175.73695374 C88.0680479 173.08617217 88.06429116 170.43598646 88.05859375 167.78515625 C88.06315893 165.93102325 88.0684655 164.07689194 88.07447815 162.22276306 C88.08339539 158.34350698 88.08100193 154.46445693 88.07104492 150.58520508 C88.05955681 145.62772999 88.07977135 140.67096738 88.10896206 135.71358585 C88.12735722 131.886424 88.127025 128.05943185 88.12132454 124.23223686 C88.12117173 122.40509479 88.12718239 120.57794092 88.13961601 118.75084114 C88.15458738 116.19029887 88.14380482 113.6310597 88.12670898 111.07055664 C88.13637695 110.32485413 88.14604492 109.57915161 88.15600586 108.81085205 C88.04901916 101.11202748 84.54867084 94.83104377 79.46875 89.16796875 C73.05870891 83.58634399 65.60331057 81.43262144 57.29589844 81.44897461 C55.34756104 81.44915588 55.34756104 81.44915588 53.35986328 81.44934082 C51.98470003 81.45437586 50.60953725 81.45954241 49.234375 81.46484375 C47.35322998 81.46635437 47.35322998 81.46635437 45.43408203 81.46789551 C40.74771206 81.47312899 36.06135511 81.48709025 31.375 81.5 C20.8975 81.520625 10.42 81.54125 -0.375 81.5625 C-0.375 103.6725 -0.375 125.7825 -0.375 148.5625 C-7.635 148.5625 -14.895 148.5625 -22.375 148.5625 C-22.375 126.4525 -22.375 104.3425 -22.375 81.5625 C-32.708125 81.48 -43.04125 81.3975 -53.6875 81.3125 C-56.92860596 81.27608398 -60.16971191 81.23966797 -63.5090332 81.20214844 C-66.10627583 81.1904552 -68.70352585 81.18026488 -71.30078125 81.171875 C-72.29019966 81.15619476 -72.29019966 81.15619476 -73.29960632 81.14019775 C-85.82784022 80.9518873 -96.87314223 82.61905558 -105.375 92.5625 Z " fill="#FEFCFD" transform="translate(267.375,143.4375)"/>
</svg>
