<?xml version="1.0" encoding="UTF-8"?>
<svg version="1.1" xmlns="http://www.w3.org/2000/svg" width="512" height="512">
<path d="M0 0 C0.83171298 -0.00170885 1.66342595 -0.0034177 2.52034235 -0.00517833 C5.28712944 -0.00845361 8.05367009 0.00249791 10.82043457 0.01345825 C12.811737 0.01402279 14.80303985 0.01370497 16.79434204 0.01257324 C22.186295 0.0120004 27.57815863 0.02374377 32.97009087 0.03772116 C38.6101829 0.0502398 44.25027708 0.05139991 49.89038086 0.05377197 C60.56450669 0.0599834 71.23859146 0.07638968 81.91269922 0.09647095 C94.06742404 0.11884042 106.22215085 0.12982602 118.37689114 0.13986182 C143.37437107 0.16075619 168.37181458 0.19592564 193.3692627 0.24050903 C193.37422791 1.17478037 193.37422791 1.17478037 193.37929344 2.12792587 C193.46074452 17.32882816 193.552908 32.52962526 193.65678978 47.73038864 C193.70677301 55.08156026 193.75321671 62.43272151 193.7911377 69.78396606 C193.82422387 76.19616756 193.86414494 82.60828512 193.91205275 89.02039361 C193.93715375 92.41114147 193.95898197 95.80183484 193.97260666 99.19264984 C193.98959252 102.9909503 194.0186571 106.78898686 194.05041504 110.58718872 C194.05257523 111.69418625 194.05473541 112.80118378 194.05696106 113.94172668 C194.19403463 126.85205413 195.55159769 138.61548896 204.4473877 148.56472778 C211.32186228 155.06663469 219.37481967 159.32078682 228.95037842 159.39872742 C229.86460571 159.40851624 230.77883301 159.41830505 231.72076416 159.4283905 C233.21401215 159.4370237 233.21401215 159.4370237 234.73742676 159.4458313 C235.79139648 159.4557309 236.84536621 159.46563049 237.93127441 159.47583008 C241.41578931 159.50742312 244.90031783 159.53219395 248.3848877 159.55691528 C250.80056106 159.5774867 253.21623085 159.59848322 255.63189697 159.61988831 C261.99077451 159.67508958 268.34968443 159.7245075 274.70861816 159.7727356 C281.1970915 159.82296476 287.6855178 159.87864345 294.1739502 159.93386841 C306.90568058 160.04142623 319.63745112 160.14306157 332.3692627 160.24050903 C332.4608811 194.32225801 332.53133331 228.40397627 332.57352401 262.48582112 C332.57852665 266.51236768 332.58370396 270.538914 332.58898926 274.56546021 C332.5900385 275.36705016 332.59108774 276.16864012 332.59216878 276.99452069 C332.60955908 289.96221258 332.64108917 302.92983331 332.67787388 315.89748303 C332.71532161 329.2102078 332.73750664 342.52289538 332.74561667 355.83567065 C332.75109652 364.04590196 332.76838433 372.25593212 332.80092856 380.46610149 C332.82212381 386.10131243 332.82845145 391.73641985 332.8232682 397.37166772 C332.82071415 400.61968936 332.82675078 403.86728792 332.84608459 407.11526299 C332.86606498 410.64559539 332.86117161 414.17507585 332.85028076 417.70542908 C332.86193213 418.72005291 332.87358349 419.73467675 332.88558793 420.78004676 C332.79147094 432.11227617 328.87859949 441.45351188 321.2442627 449.80300903 C311.57968058 459.1571656 299.62758011 460.54199608 286.80183411 460.50793457 C285.54643694 460.51246568 284.29103977 460.5169968 282.99760026 460.52166522 C279.52906158 460.53385134 276.06061968 460.53363996 272.5920645 460.53127646 C268.84480354 460.53086718 265.09757314 460.54191814 261.35032654 460.5513916 C254.01438226 460.56797889 246.67847012 460.57350014 239.34250865 460.57461636 C233.37646361 460.57556799 227.41042913 460.57968403 221.44438744 460.58601761 C204.51354213 460.60362447 187.58272214 460.61285745 170.65186761 460.61135666 C169.7398116 460.61127675 168.82775559 460.61119684 167.88806152 460.6111145 C166.97488622 460.61103274 166.06171092 460.61095098 165.12086364 460.61086674 C150.32823174 460.61005418 135.53570174 460.62918563 120.74309931 460.65739124 C105.53845916 460.68615269 90.33386866 460.69992971 75.12920064 460.69820368 C66.59928182 460.69754087 58.06946982 460.70298541 49.53957558 460.72455978 C42.27579611 460.74281465 35.01217186 460.74708377 27.74837933 460.73354094 C24.04644243 460.72703266 20.34480294 460.72681581 16.64289474 460.74424744 C12.61891048 460.76299975 8.59560806 460.75036791 4.5716095 460.73498535 C3.41652132 460.74527248 2.26143314 460.7555596 1.07134229 460.76615846 C-11.78434564 460.65806056 -22.29712569 457.37795409 -31.5291748 448.39285278 C-38.58525661 440.90506977 -41.74976094 432.77285886 -41.76495838 422.56333065 C-41.76731061 421.89003811 -41.76966284 421.21674557 -41.77208635 420.52305022 C-41.77876745 418.25664807 -41.7783184 415.99030338 -41.77790833 413.72389221 C-41.78120751 412.08660818 -41.78493319 410.44932496 -41.7890498 408.81204277 C-41.7990718 404.30448932 -41.80278692 399.79694917 -41.80543911 395.28938615 C-41.80934159 390.43098088 -41.81891999 385.57258616 -41.82765198 380.71418762 C-41.84741833 368.9767322 -41.85748296 357.23927592 -41.86637977 345.50180802 C-41.87076252 339.97483313 -41.87612938 334.44785921 -41.88136864 328.92088509 C-41.89838133 310.54847506 -41.91287549 292.17606564 -41.92011738 273.80364895 C-41.92202728 269.03545061 -41.92394761 264.26725228 -41.92590332 259.49905396 C-41.92638706 258.3139367 -41.9268708 257.12881944 -41.9273692 255.90778954 C-41.93566942 236.70986164 -41.96100602 217.51199606 -41.993484 198.31409537 C-42.0265544 178.60536809 -42.04456614 158.89667247 -42.04776162 139.18791729 C-42.04992676 128.12165753 -42.05867612 117.05548863 -42.08422279 105.98925591 C-42.10592951 96.56460518 -42.11398033 87.14006738 -42.10425601 77.71539449 C-42.09971122 72.90795808 -42.10160807 68.10075467 -42.12101746 63.29335022 C-42.13864901 58.88817797 -42.13765146 54.48340871 -42.12212016 50.07823218 C-42.11974408 48.48865962 -42.12406768 46.89905916 -42.13594881 45.30952924 C-42.23179506 31.63430774 -39.94012809 20.9961835 -30.5057373 10.67800903 C-22.14880418 2.58949988 -11.31491713 -0.08642954 0 0 Z M47.0567627 178.42800903 C44.71273909 182.33471505 44.0589922 185.69996515 44.3692627 190.24050903 C45.69533954 194.91884226 47.62826815 197.65073786 51.4317627 200.67800903 C56.36380029 203.30143328 60.50586998 203.39429141 65.96813965 203.40164185 C67.28570251 203.4090892 67.28570251 203.4090892 68.62988281 203.41668701 C71.53911113 203.43130569 74.44828491 203.4381103 77.35754395 203.44363403 C79.37912498 203.44938591 81.40070599 203.45514364 83.42228699 203.46090698 C87.66332249 203.47141626 91.90433905 203.47725935 96.14538574 203.48074341 C101.57607733 203.4862267 107.00651801 203.5102516 112.43713093 203.53871536 C116.61417876 203.55735222 120.79116629 203.56254791 124.96825218 203.56407928 C126.97009846 203.56710418 128.97194371 203.57512718 130.97374916 203.58826447 C133.77676016 203.60534604 136.57916001 203.60343947 139.38220215 203.59695435 C140.20683456 203.60616913 141.03146698 203.61538391 141.88108826 203.62487793 C148.26701268 203.5786667 152.31776707 202.0640607 157.1817627 197.74050903 C160.74280458 193.67074688 160.71824018 189.93401252 160.6427002 184.74441528 C160.2292883 180.95874351 158.94079537 179.00985191 156.3692627 176.24050903 C150.78954237 172.36526482 146.74906735 171.65860464 140.04089355 171.72293091 C139.13267349 171.71592163 138.22445343 171.70891235 137.28871155 171.70169067 C134.30352698 171.68416655 131.3192997 171.69571269 128.33410645 171.70925903 C126.25097981 171.70656275 124.1678544 171.7026792 122.08473206 171.69766235 C117.72624692 171.69177506 113.3680904 171.70030652 109.00964355 171.71902466 C103.42869672 171.74182772 97.84851879 171.72867736 92.26760006 171.7047348 C87.96869633 171.69026828 83.66997439 171.69488655 79.37106514 171.70524597 C77.31341015 171.70791015 75.25573853 171.70465441 73.19810295 171.69532776 C70.32103733 171.68514669 67.44521084 171.70068466 64.5682373 171.72293091 C63.29863663 171.71078552 63.29863663 171.71078552 62.00338745 171.69839478 C55.42786411 171.79238897 51.86640978 173.87834287 47.0567627 178.42800903 Z M46.9317627 263.92800903 C44.42252415 269.24759475 43.58405803 273.83870653 45.4317627 279.49050903 C48.10496391 283.28473012 51.16669328 286.13922433 55.3692627 288.24050903 C57.71203767 288.34393073 60.05784877 288.38007502 62.40289307 288.38768005 C63.13540795 288.39135674 63.86792283 288.39503343 64.62263513 288.39882153 C67.08994245 288.40988028 69.5572077 288.41370591 72.02453613 288.41751099 C73.78847386 288.423774 75.55241027 288.43042065 77.31634521 288.43742371 C82.1181248 288.45484884 86.91989442 288.46538966 91.72169781 288.47362924 C94.72051607 288.47877634 97.71933121 288.48485222 100.71814728 288.49114037 C110.09726957 288.51019694 119.47638398 288.5244269 128.85552192 288.53275234 C139.68851118 288.5425265 150.5212962 288.56884878 161.35421348 288.60925323 C169.72285759 288.63939714 178.09144311 288.65421958 186.46014047 288.65753335 C191.46043464 288.65988587 196.46051074 288.66887247 201.46074677 288.69399452 C206.16558552 288.71724999 210.87006224 288.72151866 215.57494354 288.71123314 C217.30109866 288.71073705 219.02727145 288.7170791 220.75337219 288.73078918 C223.11191515 288.74847326 225.46915397 288.74142013 227.82769775 288.72825623 C229.14695126 288.73064458 230.46620476 288.73303293 231.82543564 288.73549366 C236.98318535 288.01508412 239.97332485 285.56099078 243.6817627 282.05300903 C246.02578631 278.14630302 246.67953319 274.78105291 246.3692627 270.24050903 C245.04318585 265.56217581 243.11025724 262.8302802 239.3067627 259.80300903 C234.74753572 257.3778883 231.49934817 257.11036455 226.38069153 257.09333801 C225.30725558 257.08782298 225.30725558 257.08782298 224.21213406 257.08219653 C221.8078787 257.07116044 219.40366655 257.06731597 216.99938965 257.06350708 C215.27795779 257.05724233 213.55652729 257.05059552 211.83509827 257.04359436 C206.17592308 257.02255147 200.51674761 257.01219119 194.85754395 257.00222778 C192.90906447 256.9981802 190.96058513 256.99406327 189.01210594 256.9898777 C179.85723611 256.97082487 170.70237435 256.9565945 161.54748851 256.94826573 C150.98223931 256.93849508 140.41719972 256.91218042 129.85202438 256.87176484 C121.68460103 256.84159459 113.51723774 256.82679595 105.34975976 256.82348472 C100.47237519 256.8211351 95.59521453 256.81218617 90.71788979 256.78702354 C86.12711682 256.76372221 81.53671485 256.75951787 76.94589806 256.76978493 C75.26412089 256.77027991 73.58232534 256.76397049 71.90060425 256.75022888 C58.09074899 256.44920627 58.09074899 256.44920627 46.9317627 263.92800903 Z M47.9317627 348.36550903 C44.83929881 352.36205389 43.9755935 356.23267071 44.3692627 361.24050903 C46.00000904 365.95155403 48.48375541 369.1321032 52.3692627 372.24050903 C60.24385164 375.04669057 68.48948564 374.52944878 76.7401123 374.51516724 C78.40154753 374.51951908 80.06298075 374.5247038 81.72441101 374.53065491 C86.22028872 374.54400457 90.71608216 374.54462814 95.21197581 374.54209161 C98.97183738 374.54101927 102.73168208 374.54591192 106.49154001 374.55069703 C115.36444943 374.56177802 124.23731651 374.56223739 133.11022949 374.55618286 C142.24999645 374.55014197 151.38960951 374.56246024 160.52935022 374.58375293 C168.39031895 374.60139003 176.25123877 374.60736701 184.11222655 374.60411519 C188.80116277 374.60230574 193.48998917 374.60490482 198.17890739 374.61882973 C202.58915097 374.631438 206.99915517 374.62943569 211.40939522 374.61641884 C213.02301745 374.61406013 214.63665669 374.61676234 216.2502594 374.62504196 C230.72398699 374.97217753 230.72398699 374.97217753 242.8692627 368.11550903 C245.90221766 364.11944302 246.76004423 360.21161362 246.3692627 355.24050903 C244.73714092 350.52549056 242.22050212 347.39152311 238.3692627 344.24050903 C233.48698095 342.53284855 229.20604906 341.98826743 224.05152893 341.97981262 C223.34882148 341.97598707 222.64611402 341.97216153 221.92211241 341.96822006 C219.585489 341.95796449 217.24911476 341.96186788 214.91247559 341.96585083 C213.22986119 341.96150025 211.54724877 341.95631595 209.86463928 341.95036316 C205.30678835 341.93699976 200.74902047 341.93639148 196.19115376 341.93892646 C192.38154163 341.93999788 188.57194618 341.93510847 184.76233763 341.93032104 C175.77298284 341.91923525 166.78366984 341.91878336 157.79431152 341.92483521 C148.53014619 341.93087627 139.26613268 341.91855847 130.00199324 341.89726514 C122.0383012 341.87963597 114.07465743 341.87364982 106.1109466 341.87690288 C101.35887073 341.87871363 96.60690319 341.87610022 91.85484505 341.86218834 C87.38552298 341.84959306 82.91643729 341.85157015 78.44711876 341.86459923 C76.81050155 341.86696078 75.17386761 341.86424545 73.53726959 341.8559761 C59.46387392 341.34570384 59.46387392 341.34570384 47.9317627 348.36550903 Z " fill="#ff0000" transform="translate(110.6307373046875,25.759490966796875)"/>
<path d="M0 0 C3.841076 3.14802581 7.09590751 6.07720566 10.1875 10 C13.56469722 14.22291551 16.9934883 18.38487983 20.5 22.5 C24.55084599 27.26848812 28.54353631 32.07914295 32.49609375 36.9296875 C40.30791948 46.50861889 48.15972837 56.05229952 56.16748047 65.46826172 C59.73028404 69.66328182 63.21325575 73.91914278 66.6875 78.1875 C69.26146545 81.31799851 71.87576903 84.41165634 74.5 87.5 C78.64927386 92.385134 82.7445797 97.30932871 86.78515625 102.28515625 C88.36366575 104.22001358 89.95640149 106.14330132 91.55859375 108.05859375 C92.38488281 109.04988281 93.21117187 110.04117188 94.0625 111.0625 C94.81660156 111.96097656 95.57070313 112.85945313 96.34765625 113.78515625 C98 116 98 116 98 118 C85.51771171 118.0462645 73.03544368 118.08183918 60.55308723 118.10362434 C54.75752874 118.11407815 48.96202873 118.1282664 43.16650391 118.15087891 C37.57740577 118.17255044 31.98836404 118.18455658 26.39922714 118.18975449 C24.26289863 118.1934605 22.12657332 118.20069701 19.99026871 118.21146011 C17.00662728 118.22589944 14.02322131 118.22798112 11.03955078 118.22705078 C10.14907043 118.23424133 9.25859009 118.24143188 8.34112549 118.24884033 C2.22810432 118.22810432 2.22810432 118.22810432 0 116 C-0.24609566 113.94228935 -0.24609566 113.94228935 -0.24050903 111.35568237 C-0.24325836 110.37689117 -0.24600769 109.39809998 -0.24884033 108.38964844 C-0.24164978 107.31215332 -0.23445923 106.2346582 -0.22705078 105.12451172 C-0.22734283 103.99280548 -0.22763489 102.86109924 -0.22793579 101.69509888 C-0.22653812 97.9398848 -0.21095626 94.18486708 -0.1953125 90.4296875 C-0.19158393 87.83179838 -0.18873622 85.23390787 -0.18673706 82.63601685 C-0.17987089 76.4878341 -0.16409462 70.33973287 -0.14403808 64.19158089 C-0.12170136 57.19288685 -0.11069127 50.19418946 -0.10064721 43.19546866 C-0.07972897 28.79694098 -0.04453909 14.39847301 0 0 Z " fill="#ff0000" transform="translate(336,37)"/>
</svg>
